<?xml version='1.0' encoding='UTF-8'?>
<!DOCTYPE svg PUBLIC "-//W3C//DTD SVG 1.0//EN" "http://www.w3.org/TR/2001/REC-SVG-20010904/DTD/svg10.dtd">
<svg viewBox="0 0 1216 120" xmlns="http://www.w3.org/2000/svg" xmlns:inkspace="http://www.inkscape.org/namespaces/inkscape" xmlns:xlink="http://www.w3.org/1999/xlink">
  <defs id="defs_block">
    <filter height="1.504" id="filter_blur" inkspace:collect="always" width="1.1575" x="-0.07875" y="-0.252">
      <feGaussianBlur id="feGaussianBlur3780" inkspace:collect="always" stdDeviation="4.2" />
    </filter>
  </defs>
  <title>blockdiag</title>
  <desc>blockdiag {
    default_fontsize = 10;
    beginpoint [shape = beginpoint];
    endpoint [shape = endpoint];
    A [label = "Write code"];
    B [label = "Compiler/Linker"];
    C [label = "Executable file"];
    D [label = "Found a Bug?", shape = diamond]
  beginpoint -&gt; A -&gt; B -&gt; C -&gt; D -&gt; endpoint;
  D -&gt; A
}</desc>
  <ellipse cx="131" cy="66" fill="rgb(0,0,0)" rx="8.0" ry="8.0" stroke="rgb(0,0,0)" style="filter:url(#filter_blur);opacity:0.7;fill-opacity:1" />
  <rect fill="rgb(0,0,0)" height="40" stroke="rgb(0,0,0)" style="filter:url(#filter_blur);opacity:0.7;fill-opacity:1" width="128" x="259" y="46" />
  <rect fill="rgb(0,0,0)" height="40" stroke="rgb(0,0,0)" style="filter:url(#filter_blur);opacity:0.7;fill-opacity:1" width="128" x="451" y="46" />
  <ellipse cx="1091" cy="66" fill="rgb(0,0,0)" rx="8.0" ry="8.0" stroke="rgb(0,0,0)" style="filter:url(#filter_blur);opacity:0.7;fill-opacity:1" />
  <rect fill="rgb(0,0,0)" height="40" stroke="rgb(0,0,0)" style="filter:url(#filter_blur);opacity:0.7;fill-opacity:1" width="128" x="643" y="46" />
  <polygon fill="rgb(0,0,0)" points="899,38 971,66 899,94 827,66 899,38" stroke="rgb(0,0,0)" style="filter:url(#filter_blur);opacity:0.7;fill-opacity:1" />
  <ellipse cx="128" cy="60" fill="rgb(0,0,0)" rx="8.0" ry="8.0" stroke="rgb(0,0,0)" />
  <text fill="rgb(0,0,0)" font-family="sans-serif" font-size="10" font-style="normal" font-weight="normal" text-anchor="middle" textLength="54" x="163.0" y="56">beginpoint</text>
  <rect fill="rgb(255,255,255)" height="40" stroke="rgb(0,0,0)" width="128" x="256" y="40" />
  <text fill="rgb(0,0,0)" font-family="sans-serif" font-size="10" font-style="normal" font-weight="normal" text-anchor="middle" textLength="55" x="320.5" y="65">Write code</text>
  <rect fill="rgb(255,255,255)" height="40" stroke="rgb(0,0,0)" width="128" x="448" y="40" />
  <text fill="rgb(0,0,0)" font-family="sans-serif" font-size="10" font-style="normal" font-weight="normal" text-anchor="middle" textLength="83" x="512.5" y="66">Compiler/Linker</text>
  <ellipse cx="1088" cy="60" fill="white" rx="8.0" ry="8.0" stroke="rgb(0,0,0)" />
  <ellipse cx="1088.0" cy="60.0" fill="rgb(0,0,0)" rx="4.0" ry="4.0" stroke="rgb(0,0,0)" />
  <text fill="rgb(0,0,0)" font-family="sans-serif" font-size="10" font-style="normal" font-weight="normal" text-anchor="middle" textLength="45" x="1118.5" y="56">endpoint</text>
  <rect fill="rgb(255,255,255)" height="40" stroke="rgb(0,0,0)" width="128" x="640" y="40" />
  <text fill="rgb(0,0,0)" font-family="sans-serif" font-size="10" font-style="normal" font-weight="normal" text-anchor="middle" textLength="75" x="704.5" y="65">Executable file</text>
  <polygon fill="rgb(255,255,255)" points="896,32 968,60 896,88 824,60 896,32" stroke="rgb(0,0,0)" />
  <text fill="rgb(0,0,0)" font-family="sans-serif" font-size="10" font-style="normal" font-weight="normal" text-anchor="middle" textLength="70" x="896.0" y="66">Found a Bug?</text>
  <path d="M 136 60 L 248 60" fill="none" stroke="rgb(0,0,0)" />
  <polygon fill="rgb(0,0,0)" points="255,60 248,56 248,64 255,60" stroke="rgb(0,0,0)" />
  <path d="M 384 60 L 440 60" fill="none" stroke="rgb(0,0,0)" />
  <polygon fill="rgb(0,0,0)" points="447,60 440,56 440,64 447,60" stroke="rgb(0,0,0)" />
  <path d="M 576 60 L 632 60" fill="none" stroke="rgb(0,0,0)" />
  <polygon fill="rgb(0,0,0)" points="639,60 632,56 632,64 639,60" stroke="rgb(0,0,0)" />
  <path d="M 768 60 L 816 60" fill="none" stroke="rgb(0,0,0)" />
  <polygon fill="rgb(0,0,0)" points="823,60 816,56 816,64 823,60" stroke="rgb(0,0,0)" />
  <path d="M 968 60 L 1072 60" fill="none" stroke="rgb(0,0,0)" />
  <polygon fill="rgb(0,0,0)" points="1079,60 1072,56 1072,64 1079,60" stroke="rgb(0,0,0)" />
  <path d="M 968 60 L 976 60" fill="none" stroke="rgb(0,0,0)" />
  <path d="M 976 60 L 976 25" fill="none" stroke="rgb(0,0,0)" />
  <path d="M 320 25 L 976 25" fill="none" stroke="rgb(0,0,0)" />
  <path d="M 320 25 L 320 32" fill="none" stroke="rgb(0,0,0)" />
  <polygon fill="rgb(0,0,0)" points="320,39 316,32 324,32 320,39" stroke="rgb(0,0,0)" />
</svg>
