<?xml version='1.0' encoding='UTF-8'?>
<!DOCTYPE svg PUBLIC "-//W3C//DTD SVG 1.0//EN" "http://www.w3.org/TR/2001/REC-SVG-20010904/DTD/svg10.dtd">
<svg viewBox="0 0 832 120" xmlns="http://www.w3.org/2000/svg" xmlns:inkspace="http://www.inkscape.org/namespaces/inkscape" xmlns:xlink="http://www.w3.org/1999/xlink">
  <defs id="defs_block">
    <filter height="1.504" id="filter_blur" inkspace:collect="always" width="1.1575" x="-0.07875" y="-0.252">
      <feGaussianBlur id="feGaussianBlur3780" inkspace:collect="always" stdDeviation="4.2" />
    </filter>
  </defs>
  <title>blockdiag</title>
  <desc>blockdiag {
    default_fontsize = 10;
    A [label = "Write code"];
    B [label = "Compiler/Linker"];
    C [label = "Executable file"];
    D [label = "Found a Bug?", shape = diamond]
  A -&gt; B -&gt; C -&gt; D;
  D -&gt; A
}</desc>
  <rect fill="rgb(0,0,0)" height="40" stroke="rgb(0,0,0)" style="filter:url(#filter_blur);opacity:0.7;fill-opacity:1" width="128" x="67" y="46" />
  <rect fill="rgb(0,0,0)" height="40" stroke="rgb(0,0,0)" style="filter:url(#filter_blur);opacity:0.7;fill-opacity:1" width="128" x="259" y="46" />
  <rect fill="rgb(0,0,0)" height="40" stroke="rgb(0,0,0)" style="filter:url(#filter_blur);opacity:0.7;fill-opacity:1" width="128" x="451" y="46" />
  <polygon fill="rgb(0,0,0)" points="707,38 779,66 707,94 635,66 707,38" stroke="rgb(0,0,0)" style="filter:url(#filter_blur);opacity:0.7;fill-opacity:1" />
  <rect fill="rgb(255,255,255)" height="40" stroke="rgb(0,0,0)" width="128" x="64" y="40" />
  <text fill="rgb(0,0,0)" font-family="sans-serif" font-size="10" font-style="normal" font-weight="normal" text-anchor="middle" textLength="55" x="128.5" y="65">Write code</text>
  <rect fill="rgb(255,255,255)" height="40" stroke="rgb(0,0,0)" width="128" x="256" y="40" />
  <text fill="rgb(0,0,0)" font-family="sans-serif" font-size="10" font-style="normal" font-weight="normal" text-anchor="middle" textLength="83" x="320.5" y="66">Compiler/Linker</text>
  <rect fill="rgb(255,255,255)" height="40" stroke="rgb(0,0,0)" width="128" x="448" y="40" />
  <text fill="rgb(0,0,0)" font-family="sans-serif" font-size="10" font-style="normal" font-weight="normal" text-anchor="middle" textLength="75" x="512.5" y="65">Executable file</text>
  <polygon fill="rgb(255,255,255)" points="704,32 776,60 704,88 632,60 704,32" stroke="rgb(0,0,0)" />
  <text fill="rgb(0,0,0)" font-family="sans-serif" font-size="10" font-style="normal" font-weight="normal" text-anchor="middle" textLength="70" x="704.0" y="66">Found a Bug?</text>
  <path d="M 192 60 L 248 60" fill="none" stroke="rgb(0,0,0)" />
  <polygon fill="rgb(0,0,0)" points="255,60 248,56 248,64 255,60" stroke="rgb(0,0,0)" />
  <path d="M 384 60 L 440 60" fill="none" stroke="rgb(0,0,0)" />
  <polygon fill="rgb(0,0,0)" points="447,60 440,56 440,64 447,60" stroke="rgb(0,0,0)" />
  <path d="M 576 60 L 624 60" fill="none" stroke="rgb(0,0,0)" />
  <polygon fill="rgb(0,0,0)" points="631,60 624,56 624,64 631,60" stroke="rgb(0,0,0)" />
  <path d="M 776 60 L 784 60" fill="none" stroke="rgb(0,0,0)" />
  <path d="M 784 60 L 784 25" fill="none" stroke="rgb(0,0,0)" />
  <path d="M 128 25 L 784 25" fill="none" stroke="rgb(0,0,0)" />
  <path d="M 128 25 L 128 32" fill="none" stroke="rgb(0,0,0)" />
  <polygon fill="rgb(0,0,0)" points="128,39 124,32 132,32 128,39" stroke="rgb(0,0,0)" />
</svg>
